<svg xmlns="http://www.w3.org/2000/svg" viewBox="0 400 1200 360"><g fill="#231F20"><path d="M503 622v-3h12v3h-4v12h-4v-12h-4zM538 633v1h-5l-3-5h-2v5h-4v-15h7c7 0 8 7 4 9l3 5zm-7-11h-3v4h3c2 0 2-3 0-4zM556 629v-10h4v10c0 3-3 5-7 5-3 0-6-2-6-5v-10h4v10l2 1 3-1zM575 627v7h-5v-15h2l8 7v-7h4v15h-1l-8-7zM594 626c0-10 17-10 17 0s-17 10-17 0zm13 0c0-5-9-5-9 0 0 6 9 6 9 0zM632 629c0 3-3 5-6 5s-7-2-7-5v-2h4v2l3 1 2-1v-7h-3v-3h7v10zM642 626c0-10 16-10 16 0s-16 10-16 0zm12 0c0-5-8-5-8 0 0 6 8 6 8 0zM676 634h-4v-6l-6-8v-1h5l3 5 3-5h4v1l-5 8v6zM689 626c0-10 17-10 17 0s-17 10-17 0zm13 0c0-5-9-5-9 0 0 6 9 6 9 0zM728 634h-6v-15h6c11 0 11 15 0 15zm-2-4h2c6 0 6-7 0-7h-2v7zM753 630v4h-8v-4h2v-8h-2v-3h8v3h-2v8h2zM770 619c3 0 6 2 7 5h-4l-3-2c-3 0-4 2-4 4 0 3 1 4 4 4l3-1h-3v-4h7v5c-1 3-4 4-7 4-5 0-9-3-9-8s4-7 9-7zM794 630v4h-8v-4h2v-8h-2v-3h8v3h-2v8h2zM802 622v-3h12v3h-4v12h-4v-12h-4zM833 632h-7l-1 2h-4v-1l7-14h2l8 14v1h-4l-1-2zm-4-7l-2 4h4l-2-4zM850 630h6v4h-10v-15h4v11zM877 629v5h-5v-15h11v3h-6v4h5v3h-5zM906 633v1h-5l-2-5h-3v5h-4v-15h7c7 0 8 7 4 9l3 5zm-7-11h-3v4h3c3 0 3-3 0-4zM925 622h-6v3h6v3h-6v2h7v4h-11v-15h10v3zM946 622h-6v3h5v3h-5v2h6v4h-10v-15h10v3zM960 630h6v4h-10v-15h4v11zM985 632h-6l-1 2h-4v-1l7-14h2l7 14v1h-4l-1-2zm-3-7l-2 4h4l-2-4zM1003 627v7h-4v-15h2l8 7v-7h4v15h-1l-9-7zM1031 619c4 0 7 2 8 6h-4c-1-2-2-3-4-3s-4 2-4 4c0 3 2 4 4 4s3 0 4-2h4c-1 4-4 6-8 6s-8-3-8-8c0-4 4-7 8-7zM1059 622h-6v3h6v3h-6v2h6v4h-10v-15h10v3zM1083 633v1h-4l-3-5h-3v5h-4v-15h8c6 0 7 7 3 9l3 5zm-6-11h-4v4h4c2 0 2-3 0-4z"/></g><g fill="#231F20"><path d="M556 509c0 1-2 3-4 3h-18v85c0 1-1 3-3 3h-18l-3-3v-85h-18c-2 0-4-2-4-3v-16l4-2h60l4 2v16zM599 556h-8v41c0 1-1 3-3 3h-17c-2 0-3-2-3-3V494c0-1 1-2 3-2h34c6 0 37 0 37 32 0 17-8 25-19 29l10 22 10 21c0 2-1 4-3 4h-19l-3-2-19-42zm-8-20h14c3 0 13-1 13-11s-11-11-13-11h-14v22zM661 564v-69l3-2h17l4 2v69c1 9 9 15 18 15 8 0 17-5 17-15v-69l4-2h17l3 2v69c0 24-18 37-41 37s-42-14-42-37zM788 491c27 0 64 6 64 54 0 47-37 55-64 55h-17c-2 0-4-2-4-3V493l4-2h17zm3 86c13 0 37-2 37-32 0-23-16-32-37-32v64zM899 512v66h9c2 0 3 2 3 3v16c0 1-1 3-3 3h-42c-2 0-3-2-3-3v-16c0-1 1-3 3-3h9v-66h-8c-2 0-3-2-3-3v-16c0-1 1-2 3-2h40l4 2v16c0 1-2 3-4 3h-8zM1021 535l3 3v59c0 2-2 3-3 3h-16c-1 0-3-1-3-3v-5c-7 6-16 9-27 9-30 0-53-20-53-56 0-32 25-56 55-56 15 0 30 7 39 16v4l-12 12h-4c-6-6-14-9-23-9-17 0-31 12-31 33 0 24 14 33 31 33 9 0 17-3 23-10v-11h-15c-2 0-4-1-4-3v-16c0-1 2-3 4-3h36zM1074 512v66h9c2 0 3 2 3 3v16c0 1-1 3-3 3h-42c-2 0-3-2-3-3v-16c0-1 1-3 3-3h9v-66h-8c-2 0-3-2-3-3v-16c0-1 1-2 3-2h41c2 0 3 1 3 2v16c0 1-1 3-3 3h-9z"/></g><linearGradient id="a" gradientUnits="userSpaceOnUse" x1="406.1" y1="412.2" x2="66.1" y2="702.8"><stop offset="0" stop-color="#00aeef"/><stop offset="1" stop-color="#21409a"/></linearGradient><path fill="url(#a)" d="M284 404H100v37h1c0 20 15 37 36 37v1h94v127h1c2 16 16 28 32 28v1h32v-32-1-121c10 1 18 2 22 4a91 91 0 11-125 89v-6c0-20-16-36-37-37h-38v38h1a165 165 0 10165-165z"/><linearGradient id="b" gradientUnits="userSpaceOnUse" x1="208.7" y1="600.9" x2="519.1" y2="603.7"><stop offset="0" stop-color="#00aeef"/><stop offset="1" stop-color="#21409a"/></linearGradient><path fill="url(#b)" d="M296 600v0z"/><linearGradient id="c" gradientUnits="userSpaceOnUse" x1="210.7" y1="600.6" x2="514" y2="603.3"><stop offset="0" stop-color="#00aeef"/><stop offset="1" stop-color="#21409a"/></linearGradient><path fill="url(#c)" d="M312 479l-16 1v1c10 1 18 2 22 4a91 91 0 11-125 89v-5a123 123 0 10119-90z"/></svg>