<svg xmlns="http://www.w3.org/2000/svg" width="960" height="960" viewBox="0 0 9600 9600" shape-rendering="geometricPrecision" text-rendering="geometricPrecision" image-rendering="optimizeQuality" fill-rule="evenodd" clip-rule="evenodd"><path d="M550 773c0 373-37 908 74 1226 25 72 51 117 90 175a821 821 0 00277 267c248 146 334 101 474 150 94 33 2061 13 2321 13v3117l111 301c153 288 477 442 804 442h703V2657c230 0 450 58 642 155 68 34 122 60 182 96 577 346 985 926 1083 1597 12 85 9 157 20 244 16 113-3 144-3 256-1 149-46 330-80 451-115 412-323 712-613 1005-375 378-981 613-1536 613a2231 2231 0 01-2228-2215c1-331-126-634-409-812a1150 1150 0 00-639-170h-822v862c0 97 22 143 26 226 13 258 19 441 74 695a4092 4092 0 00834 1753c23 29 32 36 55 65l123 142c181 226 652 574 930 741a4092 4092 0 002996 448c881-221 1419-561 2062-1201 162-161 418-528 534-725 64-108 121-215 174-331 623-1342 468-2959-422-4145l-293-357-66-66a3813 3813 0 00-412-371c-107-80-195-147-309-222-758-496-1575-658-2486-658H589c-30 0-39 10-39 40z" fill="#00aeef"/></svg>